name kv08_filtered_grf.mot
datacolumns 37
datarows 6
range 1.763500 1.766000
endheader
time	1_ground_force_vx	1_ground_force_vy	1_ground_force_vz	1_ground_force_px	1_ground_force_py	1_ground_force_pz	1_ground_torque_x	1_ground_torque_y	1_ground_torque_z	2_ground_force_vx	2_ground_force_vy	2_ground_force_vz	2_ground_force_px	2_ground_force_py	2_ground_force_pz	2_ground_torque_x	2_ground_torque_y	2_ground_torque_z	3_ground_force_vx	3_ground_force_vy	3_ground_force_vz	3_ground_force_px	3_ground_force_py	3_ground_force_pz	3_ground_torque_x	3_ground_torque_y	3_ground_torque_z	4_ground_force_vx	4_ground_force_vy	4_ground_force_vz	4_ground_force_px	4_ground_force_py	4_ground_force_pz	4_ground_torque_x	4_ground_torque_y	4_ground_torque_z
            1.763500	          -25.765438	          398.487616	           17.758005	            0.143689	            0.000000	            0.221711	           -0.403256	            6.236740	            0.277931	           27.991347	          499.164180	           12.126884	           -0.163880	            0.000000	            0.223189	           -0.067093	           -1.196459	           -0.029067	           16.428439	            1.120965	           -0.401329	            0.380052	            1.022628	            1.091911	           -0.087891	           -0.005997	            0.002147	          -10.635256	            0.473825	           -0.192669	           -0.419549	            1.021879	            1.091211	            0.018831	           -0.000839	            0.000341
            1.764000	          -25.747467	          398.430865	           17.709204	            0.143673	            0.000000	            0.221679	           -0.403443	            6.243106	            0.277490	           28.056638	          499.100179	           12.181107	           -0.163887	            0.000000	            0.223166	           -0.066598	           -1.184710	           -0.028914	           16.417257	            1.137481	           -0.402723	            0.380053	            1.022627	            1.091911	           -0.087496	           -0.006062	            0.002146	          -10.615884	            0.468937	           -0.185723	           -0.419549	            1.021877	            1.091210	            0.018130	           -0.000801	            0.000317
            1.764500	          -25.728046	          398.368043	           17.661907	            0.143659	            0.000000	            0.221646	           -0.403616	            6.249508	            0.277076	           28.125911	          499.013595	           12.239984	           -0.163894	            0.000000	            0.223141	           -0.066087	           -1.172529	           -0.028760	           16.407436	            1.152551	           -0.404213	            0.380054	            1.022626	            1.091911	           -0.087085	           -0.006117	            0.002145	          -10.595233	            0.463265	           -0.179563	           -0.419548	            1.021874	            1.091209	            0.017408	           -0.000761	            0.000295
            1.765000	          -25.707268	          398.299355	           17.616294	            0.143646	            0.000000	            0.221613	           -0.403774	            6.255932	            0.276692	           28.198999	          498.904356	           12.303468	           -0.163902	            0.000000	            0.223115	           -0.065562	           -1.159933	           -0.028605	           16.398951	            1.166050	           -0.405743	            0.380055	            1.022625	            1.091911	           -0.086660	           -0.006162	            0.002144	          -10.573432	            0.456886	           -0.174221	           -0.419548	            1.021872	            1.091207	            0.016667	           -0.000720	            0.000275
            1.765500	          -25.685226	          398.225014	           17.572547	            0.143633	            0.000000	            0.221580	           -0.403918	            6.262362	            0.276340	           28.275721	          498.772452	           12.371537	           -0.163911	            0.000000	            0.223088	           -0.065021	           -1.146938	           -0.028449	           16.391763	            1.177869	           -0.407173	            0.380056	            1.022624	            1.091911	           -0.086224	           -0.006196	            0.002142	          -10.550623	            0.449884	           -0.169807	           -0.419547	            1.021870	            1.091206	            0.015913	           -0.000679	            0.000256
            1.766000	          -25.662014	          398.145239	           17.530841	            0.143621	            0.000000	            0.221546	           -0.404047	            6.268783	            0.276022	           28.355885	          498.617940	           12.444191	           -0.163920	            0.000000	            0.223059	           -0.064464	           -1.133560	           -0.028291	           16.385811	            1.187912	           -0.408538	            0.380057	            1.022624	            1.091911	           -0.085779	           -0.006219	            0.002139	          -10.526968	            0.442344	           -0.166250	           -0.419546	            1.021867	            1.091205	            0.015147	           -0.000636	            0.000239
